<?xml version="1.0" encoding="UTF-8"?>
<svg id="Layer_1" xmlns="http://www.w3.org/2000/svg" version="1.1" viewBox="0 0 132 30">
  <!-- Generator: Adobe Illustrator 29.0.1, SVG Export Plug-In . SVG Version: 2.1.0 Build 192)  -->
  <defs>
    <style>
      .st0 {
        fill: #231f20;
      }

      .st1 {
        fill: #2b3441;
      }

      .st2 {
        fill: #4fbf8b;
      }
    </style>
  </defs>
  <path class="st1" d="M80.1,23.9c-1.3,0-2.4-.2-3.5-.6-1.1-.4-2-1.1-2.8-1.9-.8-.8-1.4-1.7-1.9-2.8-.4-1.1-.7-2.2-.7-3.5s.2-2.4.7-3.4c.4-1.1,1.1-2,1.9-2.8.8-.8,1.7-1.4,2.8-1.8,1.1-.4,2.3-.7,3.5-.7s2.5.2,3.6.6c1.1.4,2,1,2.8,1.8l-2.5,2.5c-.4-.5-1-.9-1.6-1.1-.6-.3-1.4-.4-2.2-.4s-1.4.1-2,.4c-.6.2-1.1.6-1.6,1.1-.4.5-.8,1-1,1.7-.2.7-.4,1.4-.4,2.2s.1,1.5.4,2.2c.3.7.6,1.2,1,1.7.4.5,1,.8,1.6,1.1.6.3,1.3.4,2,.4s1.6-.1,2.3-.4c.6-.3,1.2-.6,1.7-1.1l2.5,2.5c-.8.8-1.8,1.3-2.8,1.8-1,.4-2.2.6-3.6.6ZM92.9,23.9c-1.1,0-2-.3-2.9-.8-.8-.5-1.5-1.2-2-2.2-.5-.9-.7-2-.7-3.1s.2-2.2.7-3.1c.5-.9,1.2-1.6,2-2.2.8-.5,1.8-.8,2.9-.8s1.5.2,2.1.5c.6.3,1.2.7,1.6,1.3.4.5.6,1.1.7,1.8v5c0,.7-.3,1.3-.7,1.8-.4.5-.9.9-1.5,1.2-.6.3-1.4.5-2.1.5ZM93.7,20.6c.8,0,1.4-.3,1.9-.8.5-.5.7-1.2.7-2s-.1-1-.3-1.4c-.2-.4-.5-.7-.9-1-.4-.2-.8-.4-1.3-.4s-1,.1-1.4.4c-.4.2-.7.5-.9,1-.2.4-.3.9-.3,1.4s.1,1,.3,1.4.5.7.9,1c.4.2.8.4,1.3.4ZM96.1,23.6v-3.1l.6-2.8-.6-2.8v-2.9h3.6v11.7h-3.6ZM102.3,23.6v-11.7h3.7v11.7h-3.7ZM106,17.2l-1.5-1.2c.3-1.4.8-2.4,1.5-3.2.7-.8,1.7-1.1,3-1.1s1,0,1.5.3c.4.2.8.4,1.1.8l-2.2,2.8c-.2-.2-.4-.3-.6-.4-.2,0-.5-.1-.8-.1-.6,0-1.1.2-1.5.6-.4.4-.5.9-.5,1.7ZM114.3,23.6V7.1h3.7v16.5h-3.7ZM111.7,15.1v-3.1h9v3.1h-9Z"/>
  <path class="st2" d="M29.9,2.1c-1.4,1-2.5,2.5-3,4.2-.4,0-.7,0-1.1,0h-7.1c-.9,0-1.6-.4-2.3-1.2t0,0c-.3-.4-.4-.8-.6-1.3,0,0,0,0,0-.1,0-.2-.1-.5-.1-.7,0,0,0,0,0,0,0-.2,0-.4,0-.7,0,0,0,0,.1,0h1.7c.4,0,.8,0,1.2,0h11.2Z"/>
  <path class="st2" d="M13.5-3.2s0,0,0,0c0,0,0-.1-.1-.2,0,0,0,0,0,0,0,0,0,0,0,0,0,0,0,0,0,0h0s0,0,0,0c0,0,0-.1-.1-.2,0,0,.2.2.3.3,0,0,0,0,0,0,0,0,0,0,0,0t0,0s0,0,0,0h0Z"/>
  <path class="st2" d="M13.5-3.2s0,0,0,0c0,0,0,0,0,0,0,0,0,0,0,0,0,0,0,0,0,0Z"/>
  <path class="st2" d="M26.2,23.9c-1.2-.5-2.2-1.3-2.9-2.3-.7-1-1.1-2.2-1.1-3.5h4.7c0,.9.4,1.6,1,2.2.6.5,1.4.8,2.4.8s1.8-.2,2.4-.7c.6-.5.9-1.1.9-1.9s-.2-1.2-.6-1.6c-.4-.4-.9-.8-1.5-1-.6-.2-1.4-.5-2.5-.8-1.4-.4-2.6-.8-3.5-1.2-.9-.4-1.7-1-2.3-1.9-.6-.8-1-1.9-1-3.3s.3-2.4,1-3.4c.7-1,1.6-1.7,2.8-2.2,1.2-.5,2.5-.8,4-.8,2.3,0,4.1.6,5.5,1.7s2.2,2.7,2.4,4.6h-4.9c0-.8-.4-1.4-1-1.9-.6-.5-1.4-.7-2.4-.7s-1.6.2-2.1.7c-.5.4-.8,1.1-.8,1.9s.2,1.1.6,1.5c.4.4.9.7,1.5.9s1.4.5,2.5.8c1.4.4,2.6.8,3.5,1.3.9.4,1.7,1.1,2.3,1.9.7.8,1,2,1,3.3s-.3,2.3-.9,3.3-1.5,1.8-2.7,2.4c-1.2.6-2.6.9-4.2.9s-2.9-.3-4.2-.8Z"/>
  <path class="st1" d="M49.1,22.4l-4.9-6.2v6.2h-3.7V3h3.7v11l4.9-6.1h4.8l-6.4,7.3,6.4,7.2h-4.8Z"/>
  <path class="st1" d="M69.7,7.9l-9,21.3h-3.9l3.1-7.2-5.8-14.1h4.1l3.7,10.1,3.8-10.1h3.9Z"/>
  <path class="st0" d="M13.7-3s0,0,0,0c0,0,0,0-.1-.2,0,0,0,0,0,0,0,0-.1-.2-.2-.3h0s0,0,0,0h0s0,0,0,0c0,0,0-.1-.1-.2,0,0,.2.2.3.3,0,0,0,0,0,0,0,0,0,0,0,0t0,0s0,0,0,0h0c0,0,0,.1,0,.1,0,0,0,.1.1.2Z"/>
</svg>